<?xml version="1.0" standalone="no"?>
<!DOCTYPE svg PUBLIC "-//W3C//DTD SVG 20010904//EN"
 "http://www.w3.org/TR/2001/REC-SVG-20010904/DTD/svg10.dtd">
<svg version="1.0" xmlns="http://www.w3.org/2000/svg"
 width="500.000000pt" height="500.000000pt" viewBox="0 0 500.000000 500.000000"
 preserveAspectRatio="xMidYMid meet">

<g transform="translate(0.000000,500.000000) scale(0.100000,-0.100000)"
fill="#000000" stroke="none">
<path d="M2533 2528 c-104 -106 -199 -210 -223 -248 l-41 -65 25 -3 c30 -4 60
11 196 98 58 37 112 70 120 75 11 6 -78 -94 -111 -125 -49 -45 -257 -327 -276
-375 -10 -24 -10 -26 0 -11 121 184 267 357 442 524 126 120 159 160 66 83
-44 -37 -105 -77 -301 -196 -83 -51 -130 -73 -130 -60 0 25 104 146 245 285
157 156 196 200 177 200 -4 0 -89 -82 -189 -182z"/>
<path d="M2507 2549 l-42 -41 48 37 c26 21 47 39 47 41 0 11 -15 0 -53 -37z"/>
<path d="M3343 2485 c-38 -20 -82 -47 -98 -60 -17 -14 4 -5 45 19 41 25 89 47
105 51 l30 6 -38 -35 c-39 -35 -184 -116 -208 -116 -7 0 -2 11 12 27 17 19 12
17 -21 -10 -26 -20 -66 -45 -90 -57 -25 -11 -34 -18 -21 -16 23 5 23 4 -5 -26
-29 -30 -78 -59 -123 -73 -22 -7 -23 -5 -16 24 8 37 4 38 -46 9 -40 -22 -52
-42 -21 -36 9 2 16 9 15 14 -1 5 7 10 17 10 10 0 16 -6 13 -13 -7 -19 19 -25
52 -13 20 8 30 8 35 0 4 -7 16 -3 33 10 l27 21 0 -20 c0 -26 33 -28 70 -5 17
10 18 13 5 8 -68 -23 -94 -6 -30 20 45 19 47 41 3 32 l-32 -6 34 35 c19 19 39
35 45 35 6 0 60 24 120 54 110 55 192 116 180 136 -9 15 -17 13 -92 -25z
m-248 -245 c-3 -5 -11 -10 -16 -10 -6 0 -7 5 -4 10 3 6 11 10 16 10 6 0 7 -4
4 -10z"/>
<path d="M2439 2483 c-13 -16 -12 -17 4 -4 9 7 17 15 17 17 0 8 -8 3 -21 -13z"/>
<path d="M2984 2429 c-65 -46 -199 -159 -188 -159 22 0 -37 -43 -84 -60 -59
-22 -73 -20 -54 10 7 12 8 21 2 25 -13 8 -52 -14 -45 -25 3 -6 0 -7 -8 -4 -8
3 -20 -2 -27 -11 -17 -21 7 -21 38 1 21 14 22 14 22 -5 0 -26 16 -26 74 -2
l45 20 -19 -32 c-11 -18 -20 -43 -19 -57 1 -23 1 -23 10 5 16 54 82 129 166
186 99 67 173 127 173 140 0 18 -28 8 -86 -32z m45 5 c-33 -36 -169 -132 -169
-120 0 6 180 146 188 146 3 0 -5 -12 -19 -26z"/>
<path d="M2330 2386 c-69 -66 -378 -327 -477 -403 -61 -47 -140 -90 -208 -113
-70 -24 -75 -24 -75 -5 0 20 -16 19 -24 -2 -19 -49 47 -40 175 24 73 36 136
83 308 226 219 182 388 334 380 341 -2 2 -38 -28 -79 -68z"/>
<path d="M3150 2220 c-8 -5 -10 -10 -5 -10 6 0 17 5 25 10 8 5 11 10 5 10 -5
0 -17 -5 -25 -10z"/>
<path d="M3225 2019 c-191 -9 -756 -57 -764 -65 -7 -6 16 -5 196 11 353 31
1117 57 1048 35 -22 -7 -12 -8 40 -4 72 5 84 9 71 22 -11 10 -370 11 -591 1z"/>
<path d="M2403 1943 c9 -2 25 -2 35 0 9 3 1 5 -18 5 -19 0 -27 -2 -17 -5z"/>
<path d="M2338 1933 c6 -2 18 -2 25 0 6 3 1 5 -13 5 -14 0 -19 -2 -12 -5z"/>
<path d="M2278 1923 c7 -3 16 -2 19 1 4 3 -2 6 -13 5 -11 0 -14 -3 -6 -6z"/>
<path d="M3263 1923 c-7 -3 -13 -13 -13 -23 0 -19 17 -30 38 -23 6 3 12 13 12
23 0 19 -17 30 -37 23z"/>
<path d="M2030 615 c0 -44 0 -45 33 -44 30 2 30 2 5 6 -36 6 -36 30 0 36 l27
4 -27 2 c-17 0 -28 7 -28 15 0 8 12 17 28 19 25 4 25 4 -5 6 -33 1 -33 0 -33
-44z"/>
<path d="M2157 653 c-15 -14 -6 -34 19 -43 28 -11 23 -35 -7 -27 -11 3 -19 1
-19 -5 0 -5 12 -8 27 -6 38 4 43 35 9 48 -31 11 -35 35 -6 27 11 -3 20 -1 20
4 0 10 -33 12 -43 2z"/>
<path d="M2272 653 c12 -3 18 -17 21 -46 l4 -42 1 42 c2 30 7 43 20 46 9 3 -1
5 -23 5 -22 0 -32 -2 -23 -5z"/>
<path d="M2380 615 c0 -40 2 -45 23 -45 12 0 27 4 33 8 34 23 12 82 -32 82
-22 0 -24 -4 -24 -45z m55 0 c0 -23 -5 -31 -22 -33 -20 -3 -23 1 -23 33 0 32
3 36 23 33 17 -2 22 -10 22 -33z"/>
<path d="M2589 643 c-8 -10 -9 -14 -2 -10 8 5 13 -5 16 -30 3 -35 4 -34 5 10
2 52 1 55 -19 30z"/>
<path d="M2677 654 c-13 -13 -7 -42 9 -48 14 -5 15 -4 4 9 -14 17 0 42 18 31
18 -11 10 -57 -12 -67 -20 -8 -19 -9 4 -6 22 2 25 7 25 42 0 33 -4 41 -20 43
-12 2 -24 0 -28 -4z"/>
<path d="M2797 654 c-13 -13 -7 -42 9 -48 14 -5 15 -4 4 9 -14 17 0 42 18 31
18 -11 10 -57 -12 -67 -20 -8 -19 -9 4 -6 22 2 25 7 25 42 0 33 -4 41 -20 43
-12 2 -24 0 -28 -4z"/>
<path d="M2917 653 c-13 -13 -7 -41 11 -48 14 -5 15 -4 5 6 -19 19 -16 41 4
37 27 -5 27 -57 0 -68 -14 -5 -16 -9 -6 -9 21 -1 39 19 39 44 0 33 -34 58 -53
38z"/>
</g>
</svg>
