<?xml version="1.0" standalone="no"?>
<!DOCTYPE svg PUBLIC "-//W3C//DTD SVG 20010904//EN"
 "http://www.w3.org/TR/2001/REC-SVG-20010904/DTD/svg10.dtd">
<svg version="1.0" xmlns="http://www.w3.org/2000/svg"
 width="767.000000pt" height="238.000000pt" viewBox="0 0 767.000000 238.000000"
 preserveAspectRatio="xMidYMid meet">

<g transform="translate(0.000000,238.000000) scale(0.100000,-0.100000)"
fill="#000000" stroke="none">
<path d="M155 2142 c-4 -16 25 -199 41 -254 5 -16 -2 -18 -48 -18 -65 0 -99
-19 -82 -47 9 -14 26 -19 82 -21 l71 -3 6 -32 c3 -18 36 -214 73 -437 l68
-405 68 -3 68 -3 -43 -22 c-104 -52 -128 -178 -52 -268 75 -89 219 -75 279 27
54 92 6 224 -92 254 -18 5 104 8 311 8 207 0 329 -3 311 -8 -65 -20 -116 -95
-116 -171 0 -154 204 -228 303 -110 76 91 52 216 -53 269 l-44 22 72 0 72 0 0
33 c0 37 46 737 55 840 l6 67 -619 0 -619 0 -28 138 c-15 75 -32 143 -37 150
-15 18 -46 15 -53 -6z m1074 -719 l41 -30 -23 -21 c-12 -12 -39 -28 -59 -36
l-37 -16 -3 43 c-2 34 -7 42 -23 42 -16 0 -21 -8 -23 -42 -2 -24 -7 -43 -11
-43 -13 0 -101 59 -101 68 0 5 8 16 18 24 65 58 152 62 221 11z m-655 -639
c19 -18 21 -65 4 -82 -28 -28 -98 -1 -98 37 0 50 61 79 94 45z m738 -1 c36
-33 10 -93 -42 -93 -33 0 -50 17 -50 51 0 52 54 77 92 42z"/>
<path d="M2230 1730 l0 -340 250 0 250 0 0 55 0 55 -185 0 -185 0 0 100 0 100
165 0 165 0 0 55 0 55 -165 0 -165 0 0 75 0 75 180 0 180 0 0 55 0 55 -245 0
-245 0 0 -340z"/>
<path d="M2995 1891 c-66 -16 -126 -72 -150 -140 -19 -56 -19 -165 0 -223 17
-48 62 -101 106 -124 41 -21 128 -28 179 -14 74 20 122 65 144 137 6 19 2 22
-36 28 -24 3 -51 9 -60 11 -12 4 -19 -2 -24 -21 -16 -66 -101 -85 -156 -36
-31 28 -33 33 -36 110 -2 45 -1 93 2 107 18 70 112 99 161 49 14 -13 25 -31
25 -40 0 -11 6 -15 18 -11 9 2 36 8 60 11 23 4 42 11 42 16 0 23 -42 89 -67
107 -52 37 -136 50 -208 33z"/>
<path d="M3530 1891 c-119 -37 -186 -137 -178 -269 5 -97 38 -157 107 -199
182 -109 386 9 385 223 -1 119 -64 208 -170 240 -51 15 -104 17 -144 5z m129
-107 c32 -23 61 -90 61 -144 0 -54 -29 -121 -61 -144 -40 -28 -94 -21 -137 18
l-37 34 0 92 0 92 37 34 c43 39 97 46 137 18z"/>
<path d="M2226 201 c-65 -115 -72 -131 -57 -131 6 0 19 16 28 35 16 34 19 35
70 35 48 0 53 -2 53 -22 0 -24 16 -56 24 -48 4 5 -17 155 -29 208 -10 42 -34
22 -89 -77z m78 22 l7 -53 -36 0 c-19 0 -35 2 -35 5 0 10 51 107 54 103 2 -1
6 -27 10 -55z"/>
<path d="M2595 288 c-5 -15 -45 -205 -45 -213 0 -3 4 -5 9 -5 5 0 14 23 21 52
12 61 33 88 67 88 33 0 37 -18 19 -84 -10 -41 -11 -56 -3 -53 7 2 18 33 26 70
11 54 11 69 1 82 -16 19 -40 19 -68 -1 -25 -17 -25 -15 -13 39 5 22 5 37 0 37
-5 0 -12 -6 -14 -12z"/>
<path d="M4360 285 c0 -8 5 -15 10 -15 6 0 10 7 10 15 0 8 -4 15 -10 15 -5 0
-10 -7 -10 -15z"/>
<path d="M5290 285 c0 -8 4 -15 9 -15 5 0 11 7 15 15 3 9 0 15 -9 15 -8 0 -15
-7 -15 -15z"/>
<path d="M2958 284 c-5 -4 -8 -16 -8 -26 0 -10 -7 -18 -15 -18 -16 0 -21 -26
-6 -32 6 -2 5 -24 -1 -55 -6 -29 -8 -59 -5 -68 8 -19 37 -20 37 0 0 8 -4 15
-10 15 -13 0 -13 25 1 73 5 21 16 37 24 37 8 0 15 7 15 15 0 8 -4 15 -9 15 -5
0 -11 12 -13 26 -2 14 -6 22 -10 18z"/>
<path d="M3927 283 c-4 -3 -7 -15 -7 -25 0 -13 -7 -18 -27 -18 -15 0 -38 -10
-51 -22 l-25 -23 6 23 c3 12 1 22 -4 22 -5 0 -11 -10 -14 -22 -30 -133 -33
-149 -22 -145 6 2 16 26 22 55 14 59 29 82 56 82 11 0 19 5 19 11 0 6 7 4 15
-4 12 -13 13 -24 3 -72 -12 -60 -3 -83 26 -72 20 8 21 27 1 27 -18 0 -18 8 -4
66 7 25 17 44 25 44 8 0 14 7 14 15 0 8 -5 15 -11 15 -7 0 -9 10 -7 25 5 24
-2 32 -15 18z"/>
<path d="M2440 227 c-29 -15 -53 -77 -44 -113 6 -25 31 -44 58 -44 20 0 73 46
64 56 -5 4 -16 0 -26 -9 -23 -21 -56 -22 -72 -2 -15 18 3 80 26 89 27 11 54 6
60 -9 8 -19 24 -20 24 -1 0 20 -28 46 -48 46 -9 0 -28 -6 -42 -13z"/>
<path d="M2778 224 c-39 -20 -57 -84 -35 -118 9 -13 25 -27 35 -30 26 -9 69 9
82 34 13 23 3 25 -24 5 -28 -21 -63 -19 -76 4 -5 11 -10 22 -10 25 0 3 29 6
65 6 63 0 65 1 65 25 0 29 -32 65 -57 65 -10 -1 -30 -7 -45 -16z m80 -31 c2
-9 -11 -13 -48 -13 -46 0 -51 2 -40 16 16 18 81 16 88 -3z"/>
<path d="M3048 224 c-39 -20 -57 -84 -35 -118 9 -13 25 -27 35 -30 26 -9 69 9
82 34 13 23 3 25 -24 5 -28 -21 -63 -19 -76 4 -5 11 -10 22 -10 25 0 3 29 6
65 6 63 0 65 1 65 25 0 29 -32 65 -57 65 -10 -1 -30 -7 -45 -16z m80 -31 c2
-9 -11 -13 -48 -13 -46 0 -51 2 -40 16 16 18 81 16 88 -3z"/>
<path d="M3200 225 c0 -11 11 -15 42 -15 l42 0 -50 -52 c-77 -80 -77 -88 1
-88 51 0 65 3 65 15 0 11 -12 15 -47 15 l-46 0 56 59 c32 33 57 64 57 70 0 7
-24 11 -60 11 -47 0 -60 -3 -60 -15z"/>
<path d="M3450 224 c0 -45 24 -154 35 -154 11 0 106 161 99 169 -8 9 -32 -22
-59 -79 -16 -33 -32 -60 -36 -60 -4 0 -10 32 -14 70 -4 39 -11 70 -16 70 -5 0
-9 -7 -9 -16z"/>
<path d="M3629 211 c-50 -50 -30 -141 30 -141 24 0 79 45 69 56 -5 4 -16 0
-26 -9 -31 -29 -82 -16 -82 20 0 9 17 13 60 13 60 0 60 0 60 29 0 32 -30 61
-63 61 -10 0 -32 -13 -48 -29z m89 -18 c2 -9 -10 -13 -43 -13 -42 0 -46 2 -35
16 15 18 71 15 78 -3z"/>
<path d="M4170 224 c0 -45 24 -154 35 -154 11 0 106 161 99 169 -8 9 -32 -22
-59 -79 -16 -33 -32 -60 -36 -60 -4 0 -10 32 -14 70 -4 39 -11 70 -16 70 -5 0
-9 -7 -9 -16z"/>
<path d="M4346 223 c-18 -59 -33 -154 -23 -150 6 2 17 30 24 63 7 32 15 69 18
82 6 26 -11 30 -19 5z"/>
<path d="M4404 208 c3 -18 9 -56 13 -85 4 -40 10 -53 20 -51 17 4 109 168 94
168 -5 0 -27 -32 -47 -71 -41 -78 -48 -77 -59 14 -3 31 -11 57 -17 57 -6 0 -8
-12 -4 -32z"/>
<path d="M4603 230 c-26 -11 -53 -59 -53 -95 0 -30 32 -65 59 -65 23 0 79 45
69 55 -4 4 -14 0 -23 -9 -29 -29 -85 -15 -85 21 0 9 18 13 65 13 50 0 65 3 65
15 0 27 -23 63 -44 69 -25 7 -26 7 -53 -4z m67 -35 c11 -13 5 -15 -40 -15 -45
0 -51 2 -40 15 7 8 25 15 40 15 15 0 33 -7 40 -15z"/>
<path d="M4750 225 c0 -11 11 -15 42 -15 l42 0 -57 -58 c-31 -32 -57 -63 -57
-70 0 -8 20 -12 65 -12 51 0 65 3 65 15 0 11 -12 15 -49 15 l-48 0 58 63 c32
34 59 65 59 70 0 4 -27 7 -60 7 -47 0 -60 -3 -60 -15z"/>
<path d="M5001 178 c-7 -35 -15 -73 -18 -85 -3 -13 -1 -23 5 -23 6 0 15 23 22
52 13 61 33 88 68 88 26 0 27 -5 6 -107 -12 -60 11 -34 26 29 13 53 19 64 43
72 43 15 51 -1 33 -70 -15 -57 -13 -82 4 -55 4 8 13 41 20 74 10 52 9 62 -5
76 -14 15 -18 15 -47 -2 -29 -17 -32 -17 -50 0 -18 16 -21 16 -49 1 -24 -14
-29 -15 -29 -3 0 8 -4 15 -8 15 -4 0 -14 -28 -21 -62z"/>
<path d="M5271 178 c-7 -35 -15 -73 -18 -85 -3 -13 -1 -23 5 -23 10 0 19 35
37 133 4 22 3 37 -3 37 -5 0 -15 -28 -21 -62z"/>
<path d="M5360 213 c-40 -37 -45 -97 -11 -125 32 -25 57 -23 88 8 28 29 24 47
-6 20 -27 -25 -75 -18 -79 12 -3 21 0 22 57 22 61 0 61 0 61 29 0 32 -30 61
-62 61 -10 0 -31 -12 -48 -27z m88 -20 c3 -9 -11 -13 -50 -13 -49 1 -52 2 -33
16 23 17 76 15 83 -3z"/>
<path d="M5530 201 c-28 -106 -11 -148 48 -118 27 13 32 13 32 1 0 -8 4 -14 8
-14 5 0 16 35 25 78 20 89 20 92 9 92 -5 0 -14 -23 -21 -52 -6 -29 -19 -60
-28 -70 -16 -17 -73 -26 -73 -10 1 9 19 91 26 115 3 9 1 17 -5 17 -6 0 -15
-18 -21 -39z"/>
<path d="M5720 199 l21 -41 -36 -44 c-25 -30 -31 -44 -21 -44 8 0 24 14 36 30
22 32 40 39 40 17 0 -18 27 -53 35 -45 4 3 -2 23 -13 44 l-20 38 35 43 c41 50
27 59 -16 11 l-28 -32 -17 32 c-9 18 -21 32 -26 32 -6 0 -1 -18 10 -41z"/>
<path d="M3980 88 c0 -7 4 -19 9 -26 6 -10 10 -7 13 12 4 18 1 26 -8 26 -8 0
-14 -6 -14 -12z"/>
</g>
</svg>
